<svg width="650" height="712" viewBox="0 0 650 712" fill="none" xmlns="http://www.w3.org/2000/svg">
<g clip-path="url(#clip0_7_2755)">
<rect width="650" height="712" fill="black"/>
<path opacity="0.67" d="M655.959 -373.547L1216.15 -107.484M655.959 -373.547L38.6011 392.05M655.959 -373.547L700.362 -9.83966M655.959 -373.547L897.175 -75.4172M1216.15 -107.484L287.856 962.496M1216.15 -107.484L1313.88 151.491M1216.15 -107.484L892.63 146.178M287.856 962.496L38.6011 392.05M287.856 962.496L769.497 778.959M287.856 962.496L544.98 546.889M38.6011 392.05L408.683 326.358M1313.88 151.491L769.497 778.959M1313.88 151.491L1002.79 235.565M1313.88 151.491L897.175 -75.4172M769.497 778.959L720.959 540.66M700.362 -9.83966L408.683 326.358M700.362 -9.83966L825.553 91.7475M892.63 146.178L1002.79 235.565M892.63 146.178L825.553 91.7475M892.63 146.178L544.98 546.889M1002.79 235.565L720.959 540.66M408.683 326.358L544.98 546.889M408.683 326.358L589.845 363.432M544.98 546.889L720.959 540.66M720.959 540.66L589.845 363.432M589.845 363.432L825.553 91.7475M825.553 91.7475L897.175 -75.4172" stroke="#487DFF" stroke-width="2"/>
<path opacity="0.3" d="M658.756 -420.067L1256.75 -136.052M658.756 -420.067L-0.255036 397.187M658.756 -420.067L706.156 -31.8193M658.756 -420.067L916.247 -101.821M1256.75 -136.052L265.817 1006.12M1256.75 -136.052L1361.07 140.397M1256.75 -136.052L911.396 134.725M265.817 1006.12L-0.255036 397.187M265.817 1006.12L779.955 810.201M265.817 1006.12L540.289 562.472M-0.255036 397.187L394.797 327.062M1361.07 140.397L779.955 810.201M1361.07 140.397L1028.98 230.143M1361.07 140.397L916.247 -101.821M779.955 810.201L728.143 555.824M706.156 -31.8193L394.797 327.062M706.156 -31.8193L839.793 76.622M911.396 134.725L1028.98 230.143M911.396 134.725L839.793 76.622M911.396 134.725L540.289 562.472M1028.98 230.143L728.143 555.824M394.797 327.062L540.289 562.472M394.797 327.062L588.182 366.637M540.289 562.472L728.143 555.824M728.143 555.824L588.182 366.637M588.182 366.637L839.793 76.622M839.793 76.622L916.247 -101.821" stroke="#487DFF" stroke-width="2"/>
<path opacity="0.3" d="M665.745 -536.264L1358.14 -207.41M665.745 -536.264L-97.3095 410.016M665.745 -536.264L720.628 -86.7207M665.745 -536.264L963.888 -167.775M1358.14 -207.41L210.77 1115.09M1358.14 -207.41L1478.93 112.684M1358.14 -207.41L958.271 106.117M210.77 1115.09L-97.3095 410.016M210.77 1115.09L806.079 888.236M210.77 1115.09L528.575 601.396M-97.3095 410.016L360.112 328.82M1478.93 112.684L806.079 888.236M1478.93 112.684L1094.42 216.599M1478.93 112.684L963.888 -167.775M806.079 888.236L746.086 593.698M720.628 -86.7207L360.112 328.82M720.628 -86.7207L875.364 38.8411M958.271 106.117L1094.42 216.599M958.271 106.117L875.364 38.8411M958.271 106.117L528.575 601.396M1094.42 216.599L746.086 593.698M360.112 328.82L528.575 601.396M360.112 328.82L584.028 374.643M528.575 601.396L746.086 593.698M746.086 593.698L584.028 374.643M584.028 374.643L875.364 38.8411M875.364 38.8411L963.888 -167.775" stroke="#487DFF" stroke-width="2"/>
</g>
<defs>
<clipPath id="clip0_7_2755">
<rect width="650" height="712" fill="white"/>
</clipPath>
</defs>
</svg>
