<svg width="152" height="50" viewBox="0 0 152 50" fill="none" xmlns="http://www.w3.org/2000/svg">
<path d="M-5.63273e-08 50.0002L9.98356 50.0002L9.98356 21.1659L9.98356 19.8977L0 19.8676L-5.63273e-08 50.0002Z" fill="#F0F6FF"/>
<path d="M18.8183 9.90369L9.98438 9.90369L9.98437 19.8976L20.5125 19.8976C22.6605 19.8976 24.3849 21.6186 24.3849 23.7623L24.3849 50L34.3685 50L34.3685 25.4229C34.3685 19.5957 33.2491 15.7913 30.8591 13.4363C28.4691 11.051 24.5362 9.90369 18.8183 9.90369Z" fill="#F0F6FF"/>
<path d="M64.9546 5.33291e-08L55.0315 3.47799e-08L55.0315 9.90331L45.0479 9.90331L45.0479 38.7075L45.0479 39.9756L36.4258 39.9756L36.4258 49.9695L47.7102 49.9695C51.7642 49.9695 55.0315 46.6784 55.0315 42.6627L55.0315 9.90331L64.9546 9.90331L64.9546 5.33291e-08Z" fill="#F0F6FF"/>
<path d="M84.8615 27.717C82.5018 27.1736 80.2933 26.7207 79.8093 25.362C79.5672 24.6676 79.7185 23.8523 80.021 23.3391C80.8681 21.7086 83.7724 21.6784 83.8027 21.6784C85.9809 21.6784 87.9776 22.4635 89.3693 24.2448L92.6669 20.9538C90.3979 18.6591 87.2213 17.3608 83.8027 17.3608C83.1976 17.3608 78.2058 17.5118 76.1789 21.2859C75.3015 23.0069 75.0898 25.0601 75.7251 26.8414C76.9957 30.2834 80.2933 31.0987 83.5909 31.8535C86.0414 32.397 88.2196 32.6989 88.7945 34.1482C88.7945 34.2387 89.097 35.1747 88.734 36.0503C88.1894 37.3184 86.1624 38.2242 83.7724 38.2242C81.5942 38.2242 79.6277 37.3486 78.2663 35.5672L74.9687 38.8583C77.268 41.1228 80.3841 42.5418 83.7724 42.5418C83.8329 42.5418 83.8329 42.5418 83.8329 42.5418C88.0684 42.5418 91.4567 40.6698 92.7274 37.7713C93.756 35.3257 92.9392 32.9102 92.8181 32.6083C91.5475 29.1965 88.0381 28.4719 84.8615 27.717Z" fill="#F0F6FF"/>
<path d="M107.49 17.3608C100.501 17.3608 94.8437 22.7654 94.8437 29.9815C94.8437 37.1977 100.501 42.5418 107.49 42.5418C114.478 42.5418 120.135 37.1977 120.135 29.9815C120.135 22.7654 114.478 17.3608 107.49 17.3608ZM107.49 38.4356C103.315 38.4356 99.9263 34.903 99.9263 29.9815C99.9263 25.0299 103.315 21.5275 107.49 21.5275C111.665 21.5275 115.053 24.9997 115.053 29.9815C115.053 34.903 111.665 38.4356 107.49 38.4356Z" fill="#F0F6FF"/>
<path d="M151.267 21.4079L151.267 17.2714L144.914 17.2714L144.914 9.60239L139.862 9.60239L139.862 17.2714L137.895 17.2714L136.897 17.2714L129.334 17.2714L129.334 15.9429C129.334 11.9273 129.697 10.8101 131.966 9.90432C133.236 9.39104 134.961 9.69297 135.687 10.0251L135.717 5.94903C135.324 5.67729 134.114 5.37537 132.782 5.37537C130.544 5.37537 127.67 6.06981 125.764 8.84756C124.463 10.7195 124.281 12.1386 124.281 15.9731L124.281 17.3318L121.316 17.3318L121.316 21.4682L124.281 21.4682L124.281 42.6034L129.334 42.6034L129.334 21.4682L136.897 21.4682L137.895 21.4682L139.862 21.4682L139.862 31.4923C139.862 35.3268 139.862 36.6553 141.344 39.101C142.917 41.6674 145.489 42.5732 148.363 42.5732C149.694 42.5732 150.632 42.241 151.267 41.8485L151.267 37.9234C150.541 38.2556 149.301 38.7085 147.727 38.0744C145.307 36.9875 144.914 35.508 144.914 31.4923L144.914 21.4682L151.267 21.4682L151.267 21.4079Z" fill="#F0F6FF"/>
</svg>
