<svg width="20" height="17" viewBox="0 0 20 17" fill="none" xmlns="http://www.w3.org/2000/svg">
<path fill-rule="evenodd" clip-rule="evenodd" d="M0.642511 4.72454H5.1216L9.11818 0.615147C9.22754 0.503222 9.3855 0.469944 9.52996 0.528322C9.67577 0.5867 9.76487 0.719554 9.76487 0.875228V16.1248C9.76487 16.2805 9.67577 16.4134 9.52996 16.4716C9.3855 16.5301 9.22754 16.4967 9.11818 16.3849L5.22407 12.3807H0.642511C0.28919 12.3807 0 12.0933 0 11.7419V5.36334C0 5.012 0.28919 4.72454 0.642511 4.72454ZM11.709 5.09614L12.43 4.37951L15.8538 7.7834L19.279 4.37951L20 5.09614L16.5748 8.50003L20 11.9039L19.279 12.6206L15.8538 9.21667L12.43 12.6206L11.709 11.9039L15.1329 8.50003L11.709 5.09614Z" fill="black"/>
</svg>
