<svg width="17" height="17" viewBox="0 0 17 17" fill="none" xmlns="http://www.w3.org/2000/svg">
<path fill-rule="evenodd" clip-rule="evenodd" d="M0.638795 4.72454H5.09025L9.06399 0.615147C9.17135 0.503222 9.32834 0.469944 9.47194 0.528321C9.61688 0.586699 9.70679 0.719554 9.70679 0.875228V16.1248C9.70679 16.2805 9.61688 16.4134 9.47194 16.4716C9.32834 16.5301 9.17135 16.4967 9.06399 16.3849L5.19227 12.3807H0.638795C0.287186 12.3807 0 12.0933 0 11.7419V5.36334C0 5.012 0.287186 4.72454 0.638795 4.72454ZM13.4363 5.14124C14.6776 5.84137 15.5151 7.17224 15.5151 8.69892C15.5151 10.2256 14.6776 11.5565 13.4363 12.2566C13.0135 12.4949 13.2471 13.1983 14.0442 12.6729C15.3352 11.8227 16.1874 10.3603 16.1874 8.69892C16.1874 7.03737 15.3352 5.57511 14.0442 4.72494C13.2471 4.19954 13.0135 4.90303 13.4363 5.14124ZM12.4042 5.88256C13.3021 6.49654 13.8925 7.52895 13.8925 8.69892C13.8925 9.86889 13.3021 10.9012 12.4042 11.5153C12.0755 11.7403 11.4487 11.3981 12.2298 10.7221C12.7975 10.2319 13.1558 9.50722 13.1558 8.69892C13.1558 7.89062 12.7975 7.16594 12.2298 6.6757C11.4487 5.99959 12.0755 5.65751 12.4042 5.88256Z" fill="#F0F6FF"/>
</svg>
